<?xml version="1.0" standalone="no"?><!DOCTYPE svg PUBLIC "-//W3C//DTD SVG 1.1//EN" "http://www.w3.org/Graphics/SVG/1.1/DTD/svg11.dtd"><svg t="1617681182169" class="icon" viewBox="0 0 1024 1024" version="1.1" xmlns="http://www.w3.org/2000/svg" p-id="6295" xmlns:xlink="http://www.w3.org/1999/xlink" width="200" height="200"><defs><style type="text/css"></style></defs><path d="M835.5 786.3H314.4c-68.3 0-123.9-55.6-123.9-123.9V542.5c0-20.5 16.6-37 37-37s37 16.6 37 37v119.9c0 27.5 22.3 49.8 49.8 49.8h521.1c27.4 0 49.8-22.3 49.8-49.8V310.9c0-27.5-22.3-49.8-49.8-49.8h-521c-27.4 0-49.8 22.3-49.8 49.8v52.8l-72.3 50.6c14.2 12.3 17.1 33.6 6.1 49.3-11.7 16.8-34.8 20.9-51.6 9.1l-83.6-58.5 127.2-89.1v-14.3c0-68.3 55.6-123.9 123.9-123.9h521.1c68.3 0 123.9 55.6 123.9 123.9v351.5c0 68.5-55.5 124-123.8 124z" fill="#999999" p-id="6296"></path><path d="M751.4 572.6H665c-35.7 0-64.8-29.1-64.8-64.8v-60.9c0-35.7 29.1-64.8 64.8-64.8h86.3c35.7 0 64.8 29.1 64.8 64.8v60.9c0.1 35.7-29 64.8-64.7 64.8z m-86.4-135c-5 0-9.3 4.2-9.3 9.3v60.9c0 5 4.2 9.3 9.3 9.3h86.3c5 0 9.3-4.2 9.3-9.3v-60.9c0-5-4.2-9.3-9.3-9.3H665zM472.8 572.6h-86.3c-35.7 0-64.8-29.1-64.8-64.8v-60.9c0-35.7 29.1-64.8 64.8-64.8h86.3c35.7 0 64.8 29.1 64.8 64.8v60.9c0 35.7-29.1 64.8-64.8 64.8z m-86.4-135c-5 0-9.3 4.2-9.3 9.3v60.9c0 5 4.2 9.3 9.3 9.3h86.3c5 0 9.3-4.2 9.3-9.3v-60.9c0-5-4.2-9.3-9.3-9.3h-86.3z" fill="#999999" p-id="6297"></path></svg>