<?xml version="1.0" standalone="no"?><!DOCTYPE svg PUBLIC "-//W3C//DTD SVG 1.1//EN" "http://www.w3.org/Graphics/SVG/1.1/DTD/svg11.dtd"><svg t="1617677980139" class="icon" viewBox="0 0 1024 1024" version="1.1" xmlns="http://www.w3.org/2000/svg" p-id="2109" xmlns:xlink="http://www.w3.org/1999/xlink" width="200" height="200"><defs><style type="text/css"></style></defs><path d="M405.333333 768h-170.666666V405.333333h170.666666z m-128-42.666667h85.333334V448h-85.333334z" p-id="2110" fill="#999999"></path><path d="M691.413333 789.333333H417.92L362.666667 734.08V396.586667l47.786666-47.786667 124.16-170.666667a64 64 0 0 1 86.826667-21.333333l44.8 25.813333 2.346667 8.746667c5.76 21.333333 9.173333 34.56 15.146666 56.533333l2.346667 9.173334-4.906667 9.6-49.92 74.666666h102.826667L832 439.253333v209.493334z m-256-42.666666h238.506667L789.333333 631.253333v-174.506666L716.586667 384h-164.693334L640 250.24l-10.88-40.533333L600.106667 192a21.333333 21.333333 0 0 0-29.013334 7.68l-1.28 1.92-128 175.36L405.333333 414.08v302.506667z" p-id="2111" fill="#999999"></path></svg>