<?xml version="1.0" standalone="no"?><!DOCTYPE svg PUBLIC "-//W3C//DTD SVG 1.1//EN" "http://www.w3.org/Graphics/SVG/1.1/DTD/svg11.dtd"><svg class="icon" width="200px" height="200.00px" viewBox="0 0 1024 1024" version="1.1" xmlns="http://www.w3.org/2000/svg"><path fill="#707070" d="M919.296 104.704c37.845333 37.845333 25.6 118.570667-24.746667 218.154667A425.024 425.024 0 0 1 938.666667 512c0 235.648-191.018667 426.666667-426.666667 426.666667-67.925333 0-132.138667-15.872-189.141333-44.117334-99.584 50.346667-180.309333 62.592-218.154667 24.746667-37.845333-37.845333-25.6-118.570667 24.746667-218.154667A425.024 425.024 0 0 1 85.333333 512C85.333333 276.352 276.352 85.333333 512 85.333333c67.925333 0 132.138667 15.872 189.141333 44.096 99.584-50.346667 180.288-62.570667 218.154667-24.725333zM169.6 766.592l-2.069333 4.906667c-10.026667 24.661333-16.533333 46.634667-19.370667 65.066666l-0.746667 5.397334c-2.346667 19.861333-0.042667 29.482667 2.56 32.085333 2.56 2.581333 12.202667 4.885333 32.064 2.538667 20.629333-2.453333 46.208-9.898667 75.370667-22.144a429.696 429.696 0 0 1-87.808-87.850667z m685.098667-373.546667l-3.477334 5.504c-48.853333 76.928-115.754667 160.533333-196.309333 242.026667l-7.146667 7.189333-7.04 6.997334c-83.498667 82.56-169.216 150.784-247.68 199.936C430.293333 867.648 470.336 874.666667 512 874.666667c200.298667 0 362.666667-162.368 362.666667-362.666667 0-41.664-7.04-81.706667-19.968-118.976zM512 149.333333C311.701333 149.333333 149.333333 311.701333 149.333333 512c0 131.157333 69.632 246.058667 173.952 309.76 87.232-49.088 185.898667-125.930667 279.232-219.242667 93.312-93.333333 170.154667-192 219.264-279.253333C758.058667 218.965333 643.157333 149.333333 512 149.333333z m329.962667-1.92c-20.629333 2.453333-46.208 9.898667-75.349334 22.144a430.442667 430.442667 0 0 1 87.808 87.850667c12.266667-29.162667 19.712-54.741333 22.165334-75.370667 2.346667-19.861333 0.042667-29.482667-2.56-32.085333-2.56-2.581333-12.202667-4.885333-32.064-2.538667z" /></svg>