<?xml version="1.0" standalone="no"?><!DOCTYPE svg PUBLIC "-//W3C//DTD SVG 1.1//EN" "http://www.w3.org/Graphics/SVG/1.1/DTD/svg11.dtd"><svg class="icon" width="200px" height="200.00px" viewBox="0 0 1024 1024" version="1.1" xmlns="http://www.w3.org/2000/svg"><path fill="#1296db" d="M772.4 532.5c-4.5 0-8.9-1.7-12.4-5.1L512.3 279.6 264.5 527.3c-6.8 6.8-17.9 6.8-24.7 0-6.8-6.8-6.8-17.9 0-24.7l260.1-260.1c3.3-3.3 7.7-5.1 12.4-5.1 4.6 0 9.1 1.8 12.4 5.1l260.1 260.1c6.8 6.8 6.8 17.9 0 24.7-3.4 3.5-7.9 5.2-12.4 5.2z"  /><path fill="#1296db" d="M681 787.6H343.6c-9.6 0-17.5-7.8-17.5-17.5V525.3c0-9.6 7.8-17.5 17.5-17.5s17.5 7.8 17.5 17.5v227.3h302.5V525.3c0-9.6 7.8-17.5 17.5-17.5s17.5 7.8 17.5 17.5v244.8c-0.1 9.7-8 17.5-17.6 17.5z"  /><path fill="#1296db" d="M512.3 955.5c-59.8 0-117.8-11.7-172.5-34.8-52.8-22.3-100.1-54.3-140.8-94.9-40.7-40.7-72.6-88.1-94.9-140.8C81 630.3 69.2 572.3 69.2 512.5S80.9 394.7 104 340c22.3-52.8 54.3-100.1 94.9-140.8 40.7-40.7 88.1-72.6 140.8-94.9 54.6-23.1 112.7-34.8 172.5-34.8S630 81.2 684.7 104.3c52.8 22.3 100.1 54.3 140.8 94.9 40.7 40.7 72.6 88.1 94.9 140.8 23.1 54.6 34.8 112.7 34.8 172.5S943.5 630.3 920.4 685c-22.3 52.8-54.3 100.1-94.9 140.8s-88.1 72.6-140.8 94.9c-54.6 23.1-112.6 34.8-172.4 34.8z m0-851.1c-225 0-408.1 183.1-408.1 408.1 0 225 183.1 408.1 408.1 408.1 225 0 408.1-183.1 408.1-408.1 0-225-183.1-408.1-408.1-408.1z"  /></svg>