<?xml version="1.0" standalone="no"?><!DOCTYPE svg PUBLIC "-//W3C//DTD SVG 1.1//EN" "http://www.w3.org/Graphics/SVG/1.1/DTD/svg11.dtd"><svg class="icon" width="200px" height="200.00px" viewBox="0 0 1024 1024" version="1.1" xmlns="http://www.w3.org/2000/svg"><path fill="#707070" d="M512 1024C794.308608 1024 1024 794.30656 1024 512 1024 229.69344 794.308608 0 512 0S0 229.69344 0 512C0 794.30656 229.691392 1024 512 1024L512 1024zM512 64c247.044096 0 448.002048 200.955904 448.002048 448 0 247.037952-200.957952 448.002048-448.002048 448.002048S64 759.037952 64 512C64 264.955904 264.955904 64 512 64L512 64zM512 199.995392c102.047744 0 184.80128 82.05312 184.80128 183.302144 0 101.218304-82.716672 183.26528-184.80128 183.26528-102.078464 0-184.768512-82.05312-184.768512-183.26528C327.231488 282.048512 409.954304 199.995392 512 199.995392L512 199.995392zM512 514.174976c72.900608 0 132.001792-58.619904 132.001792-130.914304 0-72.318976-59.101184-130.90816-132.001792-130.90816s-132.001792 58.621952-132.001792 130.90816C379.998208 455.585792 439.099392 514.174976 512 514.174976L512 514.174976zM512 514.174976c145.825792 0 264.003584 117.21728 264.003584 261.828608l-52.805632 0c0-115.648512-94.55616-209.440768-211.197952-209.440768s-211.202048 93.790208-211.202048 209.440768l-52.799488 0C247.998464 631.392256 366.174208 514.174976 512 514.174976L512 514.174976zM512 514.174976" /></svg>