<?xml version="1.0" standalone="no"?><!DOCTYPE svg PUBLIC "-//W3C//DTD SVG 1.1//EN" "http://www.w3.org/Graphics/SVG/1.1/DTD/svg11.dtd"><svg class="icon" width="200px" height="200.00px" viewBox="0 0 1024 1024" version="1.1" xmlns="http://www.w3.org/2000/svg"><path fill="#1296db" d="M512 0C229.627709 0 0 229.627709 0 512S229.627709 1024 512 1024 1024 794.372291 1024 512 794.372291 0 512 0z m0 996.655196c-267.269721 0-484.655196-217.385475-484.655196-484.655196s217.385475-484.655196 484.655196-484.655196 484.655196 217.385475 484.655196 484.655196-217.385475 484.655196-484.655196 484.655196z m213.266592-697.006481H607.764022l-48.511285-85.352402c-9.72514-17.162011-27.459218-27.459218-47.138324-27.573631h-0.34324c-19.679106 0-37.298771 10.182793-47.252737 27.115977l-49.884246 85.810056H298.733408c-45.193296 0-81.92 36.726704-81.92 81.92v287.864134c0 45.193296 36.726704 81.92 81.92 81.92h426.418771c45.193296 0 81.92-36.726704 81.92-81.92V381.568715c0.114413-45.193296-36.612291-81.92-81.805587-81.92z m-213.495419-58.350838l33.179888 58.236425h-67.16067l33.980782-58.236425z m240.72581 428.134972c0 15.10257-12.242235 27.344804-27.344804 27.344805H298.733408c-15.10257 0-27.344804-12.242235-27.344805-27.344805V381.568715c0-15.10257 12.242235-27.344804 27.344805-27.344804h426.418771c15.10257 0 27.344804 12.242235 27.344804 27.344804v287.864134z m-103.08648-230.199776H374.589497c-15.10257 0-27.344804 12.242235-27.344804 27.344804s12.242235 27.344804 27.344804 27.344805h274.821006c15.10257 0 27.344804-12.242235 27.344804-27.344805s-12.242235-27.344804-27.344804-27.344804z m-104.917095 99.882905H374.589497c-15.10257 0-27.344804 12.242235-27.344804 27.344804s12.242235 27.344804 27.344804 27.344805h169.903911c15.10257 0 27.344804-12.242235 27.344804-27.344805s-12.242235-27.344804-27.344804-27.344804z"  /></svg>